<svg width="36" height="36" viewBox="0 0 36 36" fill="none" xmlns="http://www.w3.org/2000/svg">
<path d="M31.0233 8.496H28.8751V6.34165C28.8758 6.24663 28.8578 6.15239 28.8219 6.06439C28.7861 5.97638 28.7331 5.89634 28.6662 5.82888C28.5993 5.76142 28.5197 5.70788 28.4319 5.67134C28.3442 5.6348 28.2501 5.61599 28.1551 5.616H23.6736C21.5677 5.61849 19.5407 6.41792 18 7.85366C16.4593 6.41792 14.4323 5.61849 12.3264 5.616H7.84491C7.65396 5.616 7.47082 5.69185 7.3358 5.82688C7.20077 5.96191 7.12491 6.14504 7.12491 6.336V8.496H4.97674C4.69047 8.49597 4.4157 8.6087 4.21193 8.80977C4.00816 9.01085 3.89179 9.28409 3.888 9.57034V26.6601C3.888 26.9488 4.00271 27.2257 4.20689 27.4299C4.41107 27.6341 4.68799 27.7488 4.97674 27.7488H12.1253C12.7295 27.7501 13.3267 27.8791 13.8776 28.1272C14.4285 28.3754 14.9207 28.7371 15.3221 29.1888L15.425 29.2953C15.5553 29.4298 15.6958 29.5541 15.8451 29.6671C15.9058 29.7098 15.9665 29.753 16.021 29.7879C16.154 29.8757 16.2927 29.9545 16.4361 30.024L16.5075 30.0585C16.5824 30.0954 16.6593 30.128 16.7379 30.1562C16.8371 30.1935 16.9382 30.2253 17.0409 30.2513C17.1298 30.2782 17.2201 30.3003 17.3114 30.3177C17.4672 30.3486 17.6249 30.3689 17.7835 30.3783L18.0026 30.384C18.2406 30.3835 18.478 30.3593 18.7113 30.312C18.7824 30.2992 18.8526 30.282 18.9216 30.2606C19.0418 30.2313 19.1601 30.1948 19.2759 30.1515H19.3078L19.4894 30.0734L19.5583 30.042C19.7118 29.968 19.86 29.8833 20.0016 29.7885L20.1513 29.6856C20.3179 29.5605 20.4739 29.4218 20.6177 29.2711L20.6409 29.2479L20.6985 29.1816C21.0949 28.7342 21.5823 28.3765 22.1279 28.1324C22.6736 27.8882 23.2651 27.7632 23.8629 27.7658H31.0233C31.1677 27.7659 31.3107 27.7373 31.444 27.6816C31.5772 27.6258 31.698 27.5441 31.7993 27.4412C31.9006 27.3382 31.9804 27.2162 32.034 27.082C32.0876 26.9479 32.114 26.8045 32.1115 26.6601V9.57034C32.108 9.2841 31.9918 9.01078 31.788 8.80966C31.5843 8.60854 31.3095 8.49584 31.0233 8.496ZM8.56491 7.056H12.3264C13.2511 7.05665 14.1662 7.2434 15.0173 7.60512C15.8683 7.96685 16.6378 8.49614 17.28 9.16148V11.0016C17.28 11.1926 17.3559 11.3757 17.4909 11.5107C17.6259 11.6457 17.809 11.7216 18 11.7216C18.191 11.7216 18.3741 11.6457 18.5091 11.5107C18.6441 11.3757 18.72 11.1926 18.72 11.0016V9.17023C19.3615 8.5033 20.1306 7.97239 20.9817 7.60915C21.8328 7.24591 22.7483 7.05779 23.6736 7.056H27.4351V23.0575H23.6736C21.8898 23.0585 20.1535 23.6319 18.72 24.6934V21.9163C18.72 21.7253 18.6441 21.5422 18.5091 21.4072C18.3741 21.2721 18.191 21.1963 18 21.1963C17.809 21.1963 17.6259 21.2721 17.4909 21.4072C17.3559 21.5422 17.28 21.7253 17.28 21.9163V24.6934C15.8465 23.6319 14.1102 23.0585 12.3264 23.0575H8.56491V7.056ZM19.5609 28.2703C19.472 28.359 19.3756 28.4398 19.2729 28.512L19.1865 28.5727C19.0999 28.6302 19.0095 28.6818 18.9159 28.727L18.8671 28.7501L18.7519 28.8015C18.6812 28.8282 18.6089 28.8504 18.5354 28.8679L18.4119 28.8967C18.2768 28.9271 18.139 28.9444 18.0005 28.9481H17.8766C17.7798 28.9421 17.6836 28.9294 17.5886 28.9101C17.5311 28.9043 17.4749 28.8897 17.4219 28.8669C17.3614 28.8522 17.3018 28.834 17.2435 28.8123L17.1201 28.7578L17.065 28.7321C16.9776 28.6894 16.893 28.6413 16.8115 28.5881L16.7138 28.5187C16.6222 28.4487 16.5362 28.3717 16.4566 28.2883L16.4021 28.2307C15.8652 27.6278 15.2069 27.1452 14.4704 26.8146C13.7338 26.484 12.9357 26.3129 12.1284 26.3124H5.328V9.936H7.128V23.7888C7.128 23.9798 7.20386 24.1629 7.33888 24.2979C7.47391 24.4329 7.65705 24.5088 7.848 24.5088H12.3295C13.2993 24.5102 14.2579 24.7161 15.1428 25.1131C16.0276 25.5101 16.8188 26.0893 17.4646 26.8128C17.5322 26.8884 17.6149 26.9489 17.7074 26.9903C17.8 27.0317 17.9002 27.0531 18.0015 27.0531C18.1029 27.0531 18.2031 27.0317 18.2957 26.9903C18.3882 26.9489 18.4709 26.8884 18.5385 26.8128C19.1843 26.0892 19.9756 25.51 20.8605 25.113C21.7455 24.716 22.7042 24.5101 23.6741 24.5088H28.1582C28.3491 24.5088 28.5323 24.4329 28.6673 24.2979C28.8023 24.1629 28.8782 23.9798 28.8782 23.7888V9.936H30.672V26.3232H23.8752C23.0693 26.318 22.2717 26.4854 21.5359 26.8143C20.8001 27.1431 20.1433 27.6257 19.6097 28.2297L19.5609 28.2703Z" fill="#404040"/>
<path d="M16.1336 19.7511C16.3892 20.0066 16.7358 20.1501 17.0972 20.1501C17.4585 20.1501 17.8051 20.0066 18.0607 19.7511L23.0024 14.8114C23.2579 14.5559 23.4014 14.2093 23.4014 13.8479C23.4014 13.4865 23.2579 13.14 23.0024 12.8844L21.8823 11.7643C21.6268 11.5088 21.2802 11.3653 20.9188 11.3653C20.5574 11.3653 20.2109 11.5088 19.9553 11.7643L17.0959 14.6242L16.0416 13.5699C15.9151 13.4434 15.765 13.343 15.5997 13.2745C15.4344 13.206 15.2572 13.1708 15.0783 13.1708C14.8994 13.1708 14.7223 13.206 14.557 13.2745C14.3917 13.343 14.2415 13.4434 14.1151 13.5699L12.9944 14.6906C12.8679 14.817 12.7675 14.9672 12.699 15.1325C12.6305 15.2978 12.5953 15.4749 12.5953 15.6538C12.5953 15.8327 12.6305 16.0099 12.699 16.1752C12.7675 16.3404 12.8679 16.4906 12.9944 16.6171L16.1336 19.7511ZM15.0799 14.6453L16.5857 16.1511C16.7233 16.2819 16.9058 16.3548 17.0956 16.3548C17.2854 16.3548 17.468 16.2819 17.6055 16.1511L20.9175 12.8361L21.9281 13.8471L17.0938 18.6814L14.0698 15.6574L15.0799 14.6453Z" fill="#00898A"/>
</svg>
